<svg width="209" height="49" viewBox="0 0 209 49" fill="none" xmlns="http://www.w3.org/2000/svg">
<path d="M24.8691 40.9138C23.532 40.9138 23.216 40.1359 24.1641 39.1878L46.3105 17.0414C47.2586 16.0933 48.0365 14.2214 48.0365 12.8844V7.51187C48.0365 6.17482 47.2586 5.85879 46.3105 6.80688L6.70947 46.4079C5.76138 47.356 6.07741 48.1339 7.41446 48.1339H45.5812C46.9182 48.1339 48.0122 47.04 48.0122 45.7029V43.3448C48.0122 42.0078 46.9182 40.9138 45.5812 40.9138H24.8691Z" fill="#14334F"/>
<path d="M7.19577 9.65108C7.19577 8.31403 8.28972 7.22008 9.62677 7.22008H33.2804C34.6175 7.22008 36.4893 6.44216 37.4374 5.49407L41.2055 1.72601C42.1536 0.77792 41.8376 0 40.5005 0H2.431C1.09395 0 0 1.09395 0 2.431V40.5977C0 41.9348 0.777921 42.2508 1.72601 41.3027L5.49407 37.5347C6.44216 36.5866 7.22008 34.7147 7.22008 33.3777V24.0912C7.22008 22.7542 8.31403 21.6602 9.65108 21.6602H18.9132C20.2503 21.6602 22.1221 20.8823 23.0702 19.9342L26.8383 16.1662C27.7864 15.2181 27.4703 14.4402 26.1333 14.4402H9.67539C8.33834 14.4402 7.24439 13.3462 7.24439 12.0092V9.65108H7.19577Z" fill="#46B199"/>
<path d="M58.3348 24V7.94H69.4008V9.854H60.4688V15.596H68.3008V17.246H60.4688V24H58.3348ZM68.7442 24L75.1462 7.94H77.5662L83.9682 24H81.7022L80.2942 20.326H72.3962L70.9882 24H68.7442ZM75.5862 12.032L73.0122 18.742H79.6782L77.0822 12.01L76.3342 9.854L75.5862 12.032ZM86.2215 24V7.94H93.4595C97.2215 7.94 98.8055 9.524 98.8055 11.922C98.8055 13.946 97.5075 15.31 95.3515 15.728C97.7275 16.036 99.2235 17.312 99.2235 19.666C99.2235 22.438 97.1555 24 93.3055 24H86.2215ZM92.9315 9.81H88.3335V15.112H92.8655C95.4835 15.112 96.7375 14.012 96.7375 12.34C96.7375 10.844 95.7475 9.81 92.9315 9.81ZM93.0635 16.652H88.3335V22.108H92.9755C96.1435 22.108 97.1335 20.876 97.1335 19.204C97.1335 17.444 95.8355 16.652 93.0635 16.652ZM101.863 24V7.94H103.997V24H101.863ZM114.571 24.22C109.269 24.22 106.959 20.392 106.959 15.948C106.959 11.57 109.709 7.72 114.615 7.72C119.785 7.72 122.293 11.504 122.293 15.948C122.293 20.326 119.741 24.22 114.571 24.22ZM114.593 22.284C118.399 22.284 120.093 19.358 120.093 15.948C120.093 12.472 118.355 9.634 114.615 9.634C111.051 9.634 109.137 12.538 109.137 15.948C109.137 19.358 110.765 22.284 114.593 22.284ZM130.1 24V7.94H135.314V19.292H142.574V24H130.1ZM151.657 24.22C146.069 24.22 143.429 20.48 143.429 15.992C143.429 11.504 146.443 7.72 151.745 7.72C157.355 7.72 160.083 11.438 160.083 15.992C160.083 20.546 157.245 24.22 151.657 24.22ZM151.723 20.172C153.747 20.172 154.825 18.764 154.825 15.97C154.825 13.088 153.747 11.724 151.789 11.724C149.809 11.724 148.709 13.132 148.709 15.97C148.709 18.698 149.699 20.172 151.723 20.172ZM168.738 19.886H166.912V24H161.918V7.94H169.332C174.348 7.94 176.394 10.448 176.394 13.858C176.394 16.916 174.37 19.886 168.738 19.886ZM168.364 11.944H166.912V16.762H168.408C170.344 16.762 171.224 15.75 171.224 14.298C171.224 12.824 170.454 11.944 168.364 11.944ZM178.096 24V7.94H190.702V11.878H182.892V14.276H189.052V17.642H182.892V20.018H191.054V24H178.096ZM191.753 21.206L195.537 17.906C196.571 19.116 197.847 20.062 199.893 20.062C201.125 20.062 201.653 19.556 201.653 18.896C201.653 18.104 200.971 17.796 197.693 17.246C193.887 16.608 192.413 15.42 192.413 12.67C192.413 9.898 194.767 7.654 198.947 7.654C201.961 7.654 204.557 8.688 206.537 10.91L202.797 13.946C201.873 12.582 200.509 11.768 198.595 11.768C197.231 11.768 196.703 12.296 196.703 12.934C196.703 13.638 197.143 13.946 199.805 14.364C204.667 15.134 206.119 16.608 206.097 19.248C206.097 22.218 203.633 24.242 199.629 24.242C195.691 24.242 193.557 22.988 191.753 21.206Z" fill="#14334F"/>
<path d="M60.1085 44.1529C59.5479 44.1529 59.0518 44.0374 58.6203 43.8063C58.1922 43.5753 57.8559 43.2491 57.6112 42.8278C57.3666 42.4065 57.2443 41.9138 57.2443 41.3498V36.6661L57.9986 36.661V41.253C57.9986 41.6335 58.0631 41.9631 58.1922 42.2417C58.3213 42.5169 58.4895 42.7446 58.6968 42.9246C58.9074 43.1013 59.1368 43.2321 59.3848 43.3171C59.6328 43.402 59.8741 43.4445 60.1085 43.4445C60.3464 43.4445 60.5893 43.402 60.8373 43.3171C61.0854 43.2321 61.313 43.1013 61.5203 42.9246C61.7275 42.7446 61.8957 42.5169 62.0248 42.2417C62.1539 41.9631 62.2185 41.6335 62.2185 41.253V36.661H62.9728V41.3498C62.9728 41.9138 62.8505 42.4065 62.6058 42.8278C62.3612 43.2457 62.0231 43.5719 61.5916 43.8063C61.1635 44.0374 60.6691 44.1529 60.1085 44.1529ZM63.7897 44L66.3329 40.2846L63.856 36.661H64.7632L66.7763 39.6578L68.7894 36.661H69.7017L67.2248 40.2846L69.7629 44H68.8557L66.7763 40.9166L64.702 44H63.7897ZM75.1717 44.1529C74.6586 44.1529 74.1966 44.068 73.7854 43.8981C73.3777 43.7248 73.0397 43.4802 72.7712 43.1642C72.5062 42.8482 72.3329 42.4727 72.2514 42.0378L73.0159 41.9104C73.1382 42.3861 73.3964 42.7598 73.7905 43.0317C74.1847 43.3001 74.6553 43.4343 75.2023 43.4343C75.5624 43.4343 75.8852 43.3782 76.1706 43.2661C76.456 43.1506 76.6803 42.9875 76.8434 42.7768C77.0064 42.5662 77.088 42.3164 77.088 42.0276C77.088 41.8374 77.054 41.676 76.9861 41.5435C76.9181 41.4076 76.8281 41.2954 76.7159 41.2071C76.6038 41.1188 76.4815 41.0457 76.349 40.988C76.2165 40.9268 76.0874 40.8775 75.9617 40.8402L74.1014 40.2846C73.8772 40.2201 73.6699 40.1385 73.4797 40.04C73.2894 39.9381 73.1229 39.8175 72.9802 39.6781C72.8409 39.5354 72.7322 39.369 72.654 39.1787C72.5759 38.9884 72.5368 38.771 72.5368 38.5263C72.5368 38.1118 72.6455 37.7534 72.863 37.451C73.0804 37.1486 73.3777 36.9158 73.7549 36.7527C74.132 36.5897 74.5618 36.5098 75.0443 36.5132C75.5336 36.5132 75.9702 36.5998 76.3541 36.7731C76.7414 36.9464 77.0608 37.1944 77.3122 37.5172C77.5637 37.8366 77.7302 38.2154 77.8117 38.6537L77.0268 38.7964C76.9759 38.4771 76.8586 38.2002 76.6752 37.9657C76.4917 37.7313 76.2573 37.5512 75.9719 37.4255C75.6898 37.2964 75.379 37.2301 75.0392 37.2267C74.7096 37.2267 74.4157 37.2828 74.1575 37.3949C73.9027 37.5036 73.7005 37.6531 73.551 37.8434C73.4015 38.0337 73.3268 38.2511 73.3268 38.4958C73.3268 38.7438 73.3947 38.9425 73.5306 39.092C73.6699 39.2415 73.8398 39.3588 74.0403 39.4437C74.2441 39.5286 74.4412 39.5983 74.6315 39.6527L76.0687 40.0757C76.2182 40.1164 76.3932 40.1759 76.5936 40.2541C76.7975 40.3288 76.9946 40.4375 77.1848 40.5802C77.3785 40.7195 77.5382 40.903 77.6639 41.1307C77.7896 41.3583 77.8525 41.6471 77.8525 41.9971C77.8525 42.3368 77.7845 42.6409 77.6486 42.9093C77.5161 43.1778 77.3275 43.4037 77.0829 43.5872C76.8417 43.7707 76.558 43.91 76.2318 44.0051C75.909 44.1036 75.5556 44.1529 75.1717 44.1529ZM81.9013 44C81.5921 44.0646 81.2863 44.09 80.9839 44.0764C80.6849 44.0629 80.4165 43.9983 80.1786 43.8828C79.9442 43.7673 79.7658 43.5872 79.6435 43.3425C79.545 43.1387 79.4906 42.9331 79.4804 42.7259C79.4736 42.5152 79.4702 42.2757 79.4702 42.0073V36.9668H80.2143V41.9767C80.2143 42.2077 80.216 42.4014 80.2194 42.5577C80.2262 42.7106 80.2619 42.8465 80.3264 42.9654C80.4488 43.1931 80.6424 43.329 80.9074 43.3731C81.1759 43.4173 81.5071 43.4071 81.9013 43.3425V44ZM78.2929 39.1379V38.4958H81.9013V39.1379H78.2929ZM82.9857 44V38.4958H83.6584V39.8208L83.5259 39.6476C83.5871 39.4845 83.6669 39.335 83.7655 39.1991C83.864 39.0598 83.971 38.9459 84.0866 38.8576C84.2293 38.7319 84.3957 38.6368 84.586 38.5722C84.7763 38.5042 84.9683 38.4652 85.1619 38.455C85.3556 38.4414 85.5323 38.455 85.692 38.4958V39.1991C85.4915 39.1481 85.2723 39.1362 85.0345 39.1634C84.7967 39.1906 84.5775 39.2857 84.3771 39.4488C84.1936 39.5915 84.056 39.7631 83.9642 39.9636C83.8725 40.1606 83.8113 40.3713 83.7808 40.5955C83.7502 40.8164 83.7349 41.0355 83.7349 41.253V44H82.9857ZM88.0246 44.1529C87.6101 44.1529 87.2618 44.0781 86.9798 43.9286C86.7012 43.7792 86.4922 43.5804 86.3529 43.3324C86.2136 43.0843 86.144 42.8142 86.144 42.522C86.144 42.223 86.2034 41.9682 86.3223 41.7575C86.4447 41.5435 86.6094 41.3685 86.8167 41.2326C87.0274 41.0967 87.2703 40.9931 87.5455 40.9217C87.8241 40.8537 88.1316 40.7943 88.468 40.7433C88.8077 40.689 89.139 40.6431 89.4618 40.6057C89.788 40.5649 90.0734 40.5259 90.318 40.4885L90.053 40.6516C90.0632 40.108 89.9579 39.7053 89.737 39.4437C89.5162 39.1821 89.1322 39.0513 88.5852 39.0513C88.2081 39.0513 87.8887 39.1362 87.627 39.3061C87.3688 39.476 87.187 39.7444 87.0817 40.1114L86.3529 39.8973C86.4786 39.4046 86.7318 39.0224 87.1123 38.7506C87.4928 38.4788 87.9872 38.3429 88.5954 38.3429C89.0982 38.3429 89.5247 38.438 89.8746 38.6283C90.228 38.8151 90.4777 39.0869 90.6238 39.4437C90.6918 39.6034 90.7359 39.7818 90.7563 39.9788C90.7767 40.1759 90.7869 40.3764 90.7869 40.5802V44H90.1192V42.6188L90.3129 42.7004C90.126 43.1727 89.8355 43.5328 89.4414 43.7808C89.0473 44.0289 88.575 44.1529 88.0246 44.1529ZM88.1112 43.5056C88.4612 43.5056 88.767 43.4428 89.0286 43.3171C89.2902 43.1914 89.5009 43.0198 89.6606 42.8023C89.8203 42.5815 89.9239 42.3334 89.9714 42.0582C90.0122 41.8815 90.0343 41.6879 90.0377 41.4772C90.0411 41.2632 90.0428 41.1035 90.0428 40.9981L90.3282 41.1459C90.0734 41.1799 89.7965 41.2139 89.4975 41.2479C89.2019 41.2819 88.9097 41.3209 88.6209 41.3651C88.3355 41.4093 88.0772 41.4619 87.8462 41.5231C87.6899 41.5673 87.5387 41.6301 87.3926 41.7117C87.2465 41.7898 87.1259 41.8951 87.0308 42.0276C86.939 42.1602 86.8931 42.3249 86.8931 42.522C86.8931 42.6817 86.9322 42.8363 87.0104 42.9858C87.0919 43.1353 87.221 43.2593 87.3977 43.3578C87.5778 43.4564 87.8156 43.5056 88.1112 43.5056ZM95.1104 44C94.8012 44.0646 94.4954 44.09 94.193 44.0764C93.894 44.0629 93.6256 43.9983 93.3878 43.8828C93.1534 43.7673 92.975 43.5872 92.8527 43.3425C92.7541 43.1387 92.6998 42.9331 92.6896 42.7259C92.6828 42.5152 92.6794 42.2757 92.6794 42.0073V36.9668H93.4235V41.9767C93.4235 42.2077 93.4252 42.4014 93.4286 42.5577C93.4354 42.7106 93.471 42.8465 93.5356 42.9654C93.6579 43.1931 93.8516 43.329 94.1166 43.3731C94.385 43.4173 94.7163 43.4071 95.1104 43.3425V44ZM91.5021 39.1379V38.4958H95.1104V39.1379H91.5021ZM98.3249 44.1529C97.7881 44.1529 97.3226 44.034 96.9284 43.7961C96.5377 43.5583 96.2336 43.2236 96.0162 42.7921C95.7987 42.3606 95.69 41.8544 95.69 41.2734C95.69 40.672 95.797 40.1521 96.0111 39.7138C96.2251 39.2755 96.5258 38.9375 96.9132 38.6996C97.3039 38.4618 97.7643 38.3429 98.2943 38.3429C98.8379 38.3429 99.3017 38.4686 99.6857 38.72C100.07 38.968 100.36 39.3248 100.557 39.7903C100.754 40.2558 100.844 40.8113 100.827 41.4568H100.063V41.1918C100.049 40.4783 99.8946 39.9398 99.599 39.5762C99.3068 39.2127 98.8787 39.0309 98.3147 39.0309C97.7235 39.0309 97.2699 39.2229 96.9539 39.6068C96.6413 39.9907 96.485 40.5378 96.485 41.2479C96.485 41.941 96.6413 42.4795 96.9539 42.8635C97.2699 43.244 97.7167 43.4343 98.2943 43.4343C98.6884 43.4343 99.0316 43.3442 99.3238 43.1642C99.6194 42.9807 99.8522 42.7174 100.022 42.3742L100.72 42.6443C100.503 43.1234 100.182 43.4954 99.757 43.7605C99.3357 44.0221 98.8583 44.1529 98.3249 44.1529ZM96.22 41.4568V40.83H100.425V41.4568H96.22ZM104.145 46.5992C103.863 46.5992 103.584 46.5568 103.309 46.4718C103.037 46.3903 102.786 46.2595 102.555 46.0794C102.324 45.9027 102.13 45.6717 101.974 45.3863L102.651 45.0091C102.804 45.3149 103.018 45.5341 103.294 45.6666C103.572 45.8025 103.856 45.8704 104.145 45.8704C104.542 45.8704 104.863 45.7957 105.108 45.6462C105.356 45.5001 105.536 45.2826 105.648 44.9938C105.76 44.705 105.815 44.3449 105.811 43.9134V42.4456H105.898V38.4958H106.566V43.9236C106.566 44.0798 106.56 44.2293 106.55 44.372C106.543 44.5181 106.528 44.6608 106.504 44.8002C106.44 45.2113 106.306 45.5493 106.102 45.8144C105.901 46.0794 105.636 46.2764 105.307 46.4056C104.981 46.5347 104.593 46.5992 104.145 46.5992ZM104.094 44.1529C103.581 44.1529 103.142 44.0255 102.779 43.7707C102.415 43.5124 102.137 43.1642 101.943 42.7259C101.749 42.2876 101.653 41.7932 101.653 41.2428C101.653 40.6958 101.748 40.2031 101.938 39.7648C102.132 39.3265 102.409 38.9799 102.769 38.7251C103.129 38.4703 103.56 38.3429 104.063 38.3429C104.58 38.3429 105.015 38.4686 105.368 38.72C105.721 38.9714 105.988 39.3163 106.168 39.7546C106.352 40.1895 106.443 40.6856 106.443 41.2428C106.443 41.7898 106.353 42.2842 106.173 42.7259C105.993 43.1642 105.728 43.5124 105.378 43.7707C105.028 44.0255 104.6 44.1529 104.094 44.1529ZM104.17 43.4547C104.561 43.4547 104.884 43.3595 105.139 43.1693C105.393 42.979 105.584 42.7174 105.709 42.3844C105.835 42.048 105.898 41.6675 105.898 41.2428C105.898 40.8113 105.835 40.4307 105.709 40.1012C105.584 39.7682 105.393 39.5083 105.139 39.3214C104.887 39.1345 104.569 39.0411 104.185 39.0411C103.791 39.0411 103.465 39.1379 103.207 39.3316C102.949 39.5253 102.757 39.7886 102.631 40.1215C102.509 40.4545 102.448 40.8283 102.448 41.2428C102.448 41.6607 102.51 42.0378 102.636 42.3742C102.765 42.7072 102.957 42.9705 103.212 43.1642C103.467 43.3578 103.786 43.4547 104.17 43.4547ZM108.775 46.4463L109.841 43.5566L109.856 44.4128L107.445 38.4958H108.24L110.218 43.4445H109.892L111.716 38.4958H112.481L109.525 46.4463H108.775ZM117.766 44.1529C117.358 44.1529 116.98 44.0951 116.63 43.9796C116.283 43.8607 115.992 43.6755 115.758 43.4241C115.575 43.227 115.439 43.0079 115.35 42.7666C115.262 42.522 115.213 42.2638 115.203 41.992C115.199 41.7337 115.236 41.4772 115.315 41.2224C115.393 40.9676 115.515 40.7416 115.682 40.5446C115.78 40.4222 115.891 40.3203 116.013 40.2388C116.139 40.1572 116.268 40.0876 116.4 40.0298C116.145 39.7648 115.95 39.5202 115.814 39.2959C115.682 39.0683 115.615 38.7897 115.615 38.4601C115.615 38.0829 115.71 37.7381 115.901 37.4255C116.094 37.1129 116.361 36.8802 116.701 36.7273C116.874 36.6491 117.051 36.5947 117.231 36.5642C117.414 36.5302 117.596 36.5132 117.776 36.5132C118.051 36.5132 118.322 36.5523 118.587 36.6304C118.852 36.7052 119.078 36.8241 119.264 36.9872C119.39 37.0857 119.501 37.2029 119.596 37.3388C119.691 37.4714 119.766 37.6107 119.82 37.7568L119.096 37.9708C119.025 37.7873 118.906 37.6327 118.74 37.507C118.61 37.4051 118.461 37.3337 118.291 37.293C118.125 37.2522 117.956 37.2318 117.786 37.2318C117.498 37.2318 117.236 37.2879 117.002 37.4C116.798 37.5019 116.645 37.6429 116.543 37.823C116.441 38.0031 116.39 38.2137 116.39 38.455C116.39 38.6622 116.424 38.8338 116.492 38.9697C116.56 39.1022 116.658 39.2466 116.788 39.4029C116.862 39.4845 116.946 39.5677 117.037 39.6527C117.129 39.7342 117.222 39.8192 117.318 39.9075L119.642 42.0633C119.655 41.9682 119.664 41.8764 119.667 41.7881C119.67 41.6964 119.672 41.6063 119.672 41.518L119.667 40.4426H120.375V41.569C120.375 41.8374 120.365 42.0565 120.345 42.2264C120.325 42.3963 120.297 42.5373 120.263 42.6494L121.211 43.5209L120.717 44.0459L119.907 43.2814C119.794 43.4275 119.652 43.5583 119.478 43.6738C119.309 43.7893 119.139 43.8794 118.969 43.9439C118.785 44.0255 118.592 44.0798 118.388 44.107C118.184 44.1376 117.977 44.1529 117.766 44.1529ZM117.776 43.4292C117.97 43.4292 118.145 43.4173 118.301 43.3935C118.457 43.3697 118.607 43.3205 118.75 43.2457C118.93 43.1506 119.064 43.0622 119.152 42.9807C119.241 42.8958 119.312 42.821 119.366 42.7564L116.981 40.5751C116.838 40.6193 116.704 40.6805 116.579 40.7586C116.456 40.8334 116.351 40.9234 116.263 41.0287C116.164 41.151 116.091 41.292 116.043 41.4517C115.996 41.6114 115.972 41.7796 115.972 41.9563C115.979 42.1432 116.009 42.3164 116.064 42.4761C116.122 42.6324 116.207 42.7717 116.319 42.8941C116.478 43.0809 116.692 43.2168 116.961 43.3018C117.229 43.3867 117.501 43.4292 117.776 43.4292ZM124.086 44V36.661H126.92C126.991 36.661 127.071 36.6644 127.16 36.6712C127.251 36.6746 127.343 36.6848 127.435 36.7018C127.819 36.7595 128.143 36.8937 128.408 37.1044C128.677 37.3117 128.879 37.5733 129.015 37.8893C129.154 38.2053 129.224 38.5552 129.224 38.9392C129.224 39.3197 129.154 39.668 129.015 39.9839C128.875 40.2999 128.672 40.5632 128.403 40.7739C128.138 40.9812 127.815 41.1137 127.435 41.1714C127.343 41.185 127.251 41.1952 127.16 41.202C127.071 41.2088 126.991 41.2122 126.92 41.2122H124.836V44H124.086ZM124.836 40.4987H126.9C126.961 40.4987 127.032 40.4953 127.114 40.4885C127.195 40.4817 127.275 40.4698 127.353 40.4528C127.605 40.3985 127.81 40.2948 127.97 40.1419C128.133 39.989 128.254 39.8073 128.332 39.5966C128.413 39.3859 128.454 39.1668 128.454 38.9392C128.454 38.7115 128.413 38.4924 128.332 38.2817C128.254 38.0676 128.133 37.8842 127.97 37.7313C127.81 37.5784 127.605 37.4747 127.353 37.4204C127.275 37.4034 127.195 37.3932 127.114 37.3898C127.032 37.383 126.961 37.3796 126.9 37.3796H124.836V40.4987ZM130.238 44V38.4958H130.911V39.8208L130.778 39.6476C130.839 39.4845 130.919 39.335 131.018 39.1991C131.116 39.0598 131.223 38.9459 131.339 38.8576C131.482 38.7319 131.648 38.6368 131.838 38.5722C132.029 38.5042 132.221 38.4652 132.414 38.455C132.608 38.4414 132.785 38.455 132.944 38.4958V39.1991C132.744 39.1481 132.525 39.1362 132.287 39.1634C132.049 39.1906 131.83 39.2857 131.629 39.4488C131.446 39.5915 131.308 39.7631 131.217 39.9636C131.125 40.1606 131.064 40.3713 131.033 40.5955C131.003 40.8164 130.987 41.0355 130.987 41.253V44H130.238ZM136.11 44.1529C135.563 44.1529 135.096 44.0289 134.709 43.7808C134.321 43.5328 134.024 43.1897 133.817 42.7514C133.609 42.3131 133.506 41.8102 133.506 41.2428C133.506 40.6652 133.611 40.1589 133.822 39.724C134.032 39.2891 134.331 38.951 134.719 38.7098C135.11 38.4652 135.573 38.3429 136.11 38.3429C136.661 38.3429 137.129 38.4669 137.517 38.7149C137.908 38.9595 138.205 39.301 138.409 39.7393C138.616 40.1742 138.72 40.6754 138.72 41.2428C138.72 41.8204 138.616 42.3283 138.409 42.7666C138.201 43.2015 137.902 43.5413 137.512 43.7859C137.121 44.0306 136.654 44.1529 136.11 44.1529ZM136.11 43.4343C136.722 43.4343 137.177 43.2321 137.476 42.8278C137.775 42.4201 137.924 41.8917 137.924 41.2428C137.924 40.5768 137.773 40.0468 137.471 39.6527C137.172 39.2585 136.718 39.0615 136.11 39.0615C135.699 39.0615 135.359 39.1549 135.091 39.3418C134.826 39.5253 134.627 39.7818 134.495 40.1114C134.365 40.4375 134.301 40.8147 134.301 41.2428C134.301 41.9053 134.454 42.4371 134.76 42.838C135.065 43.2355 135.516 43.4343 136.11 43.4343ZM141.979 44.1529C141.466 44.1529 141.028 44.0255 140.664 43.7707C140.301 43.5124 140.022 43.1642 139.829 42.7259C139.635 42.2876 139.538 41.7932 139.538 41.2428C139.538 40.6958 139.633 40.2031 139.823 39.7648C140.017 39.3265 140.294 38.9799 140.654 38.7251C141.014 38.4703 141.446 38.3429 141.949 38.3429C142.465 38.3429 142.9 38.4686 143.253 38.72C143.607 38.9714 143.873 39.3163 144.054 39.7546C144.237 40.1895 144.329 40.6856 144.329 41.2428C144.329 41.7898 144.239 42.2842 144.059 42.7259C143.879 43.1642 143.614 43.5124 143.264 43.7707C142.914 44.0255 142.486 44.1529 141.979 44.1529ZM142.056 43.4547C142.446 43.4547 142.769 43.3595 143.024 43.1693C143.279 42.979 143.469 42.7174 143.595 42.3844C143.721 42.048 143.783 41.6675 143.783 41.2428C143.783 40.8113 143.721 40.4307 143.595 40.1012C143.469 39.7682 143.279 39.5083 143.024 39.3214C142.773 39.1345 142.455 39.0411 142.071 39.0411C141.677 39.0411 141.351 39.1379 141.092 39.3316C140.834 39.5253 140.642 39.7886 140.517 40.1215C140.394 40.4545 140.333 40.8283 140.333 41.2428C140.333 41.6607 140.396 42.0378 140.522 42.3742C140.651 42.7072 140.843 42.9705 141.098 43.1642C141.352 43.3578 141.672 43.4547 142.056 43.4547ZM143.783 44V39.8565H143.702V36.661H144.456V44H143.783ZM147.991 44.1376C147.661 44.1376 147.372 44.0866 147.124 43.9847C146.88 43.8828 146.671 43.7452 146.498 43.5719C146.328 43.3986 146.19 43.2015 146.085 42.9807C145.979 42.7564 145.903 42.5203 145.855 42.2723C145.808 42.0208 145.784 41.7711 145.784 41.5231V38.4958H146.538V41.3039C146.538 41.6063 146.567 41.8866 146.625 42.1449C146.683 42.4031 146.774 42.629 146.9 42.8227C147.029 43.013 147.194 43.1608 147.395 43.2661C147.598 43.3714 147.845 43.4241 148.134 43.4241C148.399 43.4241 148.631 43.3782 148.832 43.2865C149.036 43.1947 149.206 43.0639 149.341 42.8941C149.481 42.7208 149.586 42.5118 149.657 42.2672C149.729 42.0192 149.764 41.7405 149.764 41.4314L150.294 41.5486C150.294 42.1126 150.196 42.5866 149.999 42.9705C149.802 43.3544 149.53 43.6449 149.183 43.842C148.837 44.0391 148.439 44.1376 147.991 44.1376ZM149.841 44V42.6443H149.764V38.4958H150.514V44H149.841ZM154.221 44.1529C153.668 44.1529 153.199 44.0289 152.815 43.7808C152.431 43.5328 152.139 43.1914 151.938 42.7564C151.741 42.3181 151.639 41.8153 151.632 41.2479C151.639 40.6703 151.744 40.164 151.948 39.7291C152.152 39.2908 152.446 38.951 152.83 38.7098C153.214 38.4652 153.679 38.3429 154.226 38.3429C154.784 38.3429 155.268 38.4788 155.679 38.7506C156.093 39.0224 156.377 39.3944 156.53 39.8667L155.796 40.1012C155.667 39.7716 155.461 39.5168 155.179 39.3367C154.901 39.1532 154.581 39.0615 154.221 39.0615C153.817 39.0615 153.482 39.1549 153.217 39.3418C152.952 39.5253 152.755 39.7818 152.626 40.1114C152.497 40.4409 152.431 40.8198 152.427 41.2479C152.434 41.907 152.587 42.4371 152.886 42.838C153.185 43.2355 153.63 43.4343 154.221 43.4343C154.595 43.4343 154.913 43.3493 155.174 43.1795C155.439 43.0062 155.64 42.7547 155.776 42.4252L156.53 42.6494C156.326 43.1387 156.027 43.5124 155.633 43.7707C155.239 44.0255 154.768 44.1529 154.221 44.1529ZM160.579 44C160.27 44.0646 159.964 44.09 159.661 44.0764C159.362 44.0629 159.094 43.9983 158.856 43.8828C158.622 43.7673 158.443 43.5872 158.321 43.3425C158.223 43.1387 158.168 42.9331 158.158 42.7259C158.151 42.5152 158.148 42.2757 158.148 42.0073V36.9668H158.892V41.9767C158.892 42.2077 158.894 42.4014 158.897 42.5577C158.904 42.7106 158.939 42.8465 159.004 42.9654C159.126 43.1931 159.32 43.329 159.585 43.3731C159.853 43.4173 160.185 43.4071 160.579 43.3425V44ZM156.971 39.1379V38.4958H160.579V39.1379H156.971ZM163.704 44V36.661H165.931C166.009 36.661 166.142 36.6627 166.329 36.6661C166.519 36.6695 166.701 36.6831 166.874 36.7069C167.431 36.785 167.897 36.9923 168.27 37.3286C168.644 37.665 168.924 38.0931 169.111 38.613C169.298 39.1328 169.392 39.7053 169.392 40.3305C169.392 40.9557 169.298 41.5282 169.111 42.048C168.924 42.5679 168.644 42.996 168.27 43.3324C167.897 43.6687 167.431 43.876 166.874 43.9541C166.704 43.9745 166.522 43.9881 166.329 43.9949C166.135 43.9983 166.002 44 165.931 44H163.704ZM164.479 43.2814H165.931C166.07 43.2814 166.22 43.278 166.38 43.2712C166.543 43.261 166.682 43.244 166.797 43.2202C167.226 43.1455 167.57 42.9722 167.832 42.7004C168.097 42.4286 168.291 42.0888 168.413 41.6811C168.535 41.27 168.597 40.8198 168.597 40.3305C168.597 39.8378 168.535 39.3859 168.413 38.9748C168.291 38.5637 168.097 38.2239 167.832 37.9555C167.567 37.6871 167.222 37.5155 166.797 37.4408C166.682 37.417 166.541 37.4017 166.374 37.3949C166.211 37.3847 166.064 37.3796 165.931 37.3796H164.479V43.2814ZM172.881 44.1529C172.345 44.1529 171.879 44.034 171.485 43.7961C171.094 43.5583 170.79 43.2236 170.573 42.7921C170.355 42.3606 170.247 41.8544 170.247 41.2734C170.247 40.672 170.354 40.1521 170.568 39.7138C170.782 39.2755 171.082 38.9375 171.47 38.6996C171.86 38.4618 172.321 38.3429 172.851 38.3429C173.395 38.3429 173.858 38.4686 174.242 38.72C174.626 38.968 174.917 39.3248 175.114 39.7903C175.311 40.2558 175.401 40.8113 175.384 41.4568H174.619V41.1918C174.606 40.4783 174.451 39.9398 174.156 39.5762C173.863 39.2127 173.435 39.0309 172.871 39.0309C172.28 39.0309 171.826 39.2229 171.511 39.6068C171.198 39.9907 171.042 40.5378 171.042 41.2479C171.042 41.941 171.198 42.4795 171.511 42.8635C171.826 43.244 172.273 43.4343 172.851 43.4343C173.245 43.4343 173.588 43.3442 173.88 43.1642C174.176 42.9807 174.409 42.7174 174.579 42.3742L175.277 42.6443C175.059 43.1234 174.738 43.4954 174.314 43.7605C173.892 44.0221 173.415 44.1529 172.881 44.1529ZM170.777 41.4568V40.83H174.981V41.4568H170.777ZM178.569 44.1478C177.923 44.1478 177.391 44.0085 176.974 43.7299C176.559 43.4513 176.304 43.0639 176.209 42.5679L176.974 42.4405C177.055 42.7531 177.24 43.0028 177.529 43.1897C177.821 43.3731 178.181 43.4649 178.61 43.4649C179.027 43.4649 179.357 43.3782 179.598 43.2049C179.84 43.0283 179.96 42.7887 179.96 42.4863C179.96 42.3164 179.921 42.1788 179.843 42.0735C179.768 41.9648 179.614 41.8646 179.379 41.7728C179.145 41.6811 178.795 41.5724 178.329 41.4466C177.83 41.3107 177.439 41.1748 177.157 41.0389C176.875 40.903 176.675 40.7467 176.556 40.57C176.437 40.39 176.377 40.1708 176.377 39.9126C176.377 39.6 176.466 39.3265 176.642 39.092C176.819 38.8542 177.064 38.6707 177.376 38.5416C177.689 38.4091 178.052 38.3429 178.467 38.3429C178.881 38.3429 179.252 38.4108 179.578 38.5467C179.907 38.6792 180.173 38.8661 180.373 39.1073C180.573 39.3486 180.692 39.6289 180.73 39.9483L179.965 40.0859C179.914 39.7631 179.753 39.5083 179.481 39.3214C179.213 39.1311 178.871 39.0326 178.457 39.0258C178.066 39.0156 177.748 39.0903 177.504 39.25C177.259 39.4063 177.137 39.6153 177.137 39.8769C177.137 40.023 177.181 40.1487 177.269 40.2541C177.358 40.356 177.517 40.4528 177.748 40.5446C177.983 40.6363 178.316 40.7365 178.747 40.8453C179.253 40.9744 179.651 41.1103 179.94 41.253C180.229 41.3957 180.434 41.5639 180.556 41.7575C180.679 41.9512 180.74 42.1907 180.74 42.4761C180.74 42.996 180.546 43.4054 180.159 43.7044C179.775 44 179.245 44.1478 178.569 44.1478ZM181.972 37.451V36.61H182.721V37.451H181.972ZM181.972 44V38.4958H182.721V44H181.972ZM186.436 46.5992C186.154 46.5992 185.875 46.5568 185.6 46.4718C185.328 46.3903 185.077 46.2595 184.846 46.0794C184.615 45.9027 184.421 45.6717 184.265 45.3863L184.942 45.0091C185.095 45.3149 185.309 45.5341 185.585 45.6666C185.863 45.8025 186.147 45.8704 186.436 45.8704C186.833 45.8704 187.154 45.7957 187.399 45.6462C187.647 45.5001 187.827 45.2826 187.939 44.9938C188.051 44.705 188.106 44.3449 188.102 43.9134V42.4456H188.189V38.4958H188.857V43.9236C188.857 44.0798 188.851 44.2293 188.841 44.372C188.834 44.5181 188.819 44.6608 188.795 44.8002C188.731 45.2113 188.597 45.5493 188.393 45.8144C188.192 46.0794 187.927 46.2764 187.598 46.4056C187.272 46.5347 186.884 46.5992 186.436 46.5992ZM186.385 44.1529C185.872 44.1529 185.433 44.0255 185.07 43.7707C184.706 43.5124 184.428 43.1642 184.234 42.7259C184.04 42.2876 183.943 41.7932 183.943 41.2428C183.943 40.6958 184.039 40.2031 184.229 39.7648C184.423 39.3265 184.699 38.9799 185.06 38.7251C185.42 38.4703 185.851 38.3429 186.354 38.3429C186.871 38.3429 187.305 38.4686 187.659 38.72C188.012 38.9714 188.279 39.3163 188.459 39.7546C188.642 40.1895 188.734 40.6856 188.734 41.2428C188.734 41.7898 188.644 42.2842 188.464 42.7259C188.284 43.1642 188.019 43.5124 187.669 43.7707C187.319 44.0255 186.891 44.1529 186.385 44.1529ZM186.461 43.4547C186.852 43.4547 187.175 43.3595 187.43 43.1693C187.684 42.979 187.875 42.7174 188 42.3844C188.126 42.048 188.189 41.6675 188.189 41.2428C188.189 40.8113 188.126 40.4307 188 40.1012C187.875 39.7682 187.684 39.5083 187.43 39.3214C187.178 39.1345 186.86 39.0411 186.476 39.0411C186.082 39.0411 185.756 39.1379 185.498 39.3316C185.24 39.5253 185.048 39.7886 184.922 40.1215C184.8 40.4545 184.739 40.8283 184.739 41.2428C184.739 41.6607 184.801 42.0378 184.927 42.3742C185.056 42.7072 185.248 42.9705 185.503 43.1642C185.758 43.3578 186.077 43.4547 186.461 43.4547ZM194.257 44V41.1918C194.257 40.886 194.228 40.6057 194.17 40.3509C194.112 40.0927 194.019 39.8684 193.89 39.6781C193.764 39.4845 193.599 39.335 193.395 39.2297C193.195 39.1243 192.95 39.0717 192.662 39.0717C192.397 39.0717 192.162 39.1175 191.958 39.2093C191.758 39.301 191.588 39.4335 191.449 39.6068C191.313 39.7767 191.209 39.9839 191.138 40.2286C191.066 40.4732 191.031 40.7518 191.031 41.0644L190.501 40.9472C190.501 40.3832 190.599 39.9092 190.796 39.5253C190.993 39.1413 191.265 38.8508 191.612 38.6537C191.958 38.4567 192.356 38.3581 192.804 38.3581C193.134 38.3581 193.421 38.4091 193.666 38.511C193.914 38.613 194.123 38.7506 194.292 38.9239C194.466 39.0971 194.605 39.2959 194.71 39.5202C194.816 39.741 194.892 39.9771 194.94 40.2286C194.987 40.4766 195.011 40.7246 195.011 40.9727V44H194.257ZM190.276 44V38.4958H190.954V39.8514H191.031V44H190.276Z" fill="#555E68"/>
</svg>
